<svg width="192" height="192" viewBox="0 0 192 192" fill="none" xmlns="http://www.w3.org/2000/svg">
  <rect width="192" height="192" rx="24" fill="#2563eb"/>
  <g transform="translate(32, 32)">
    <!-- Lungs icon -->
    <path d="M64 24C64 24 72 32 72 48C72 64 64 72 64 72C64 72 56 64 56 48C56 32 64 24 64 24Z" fill="white" opacity="0.9"/>
    <path d="M64 24C64 24 56 32 56 48C56 64 64 72 64 72C64 72 72 64 72 48C72 32 64 24 64 24Z" fill="white" opacity="0.7"/>
    
    <!-- Stethoscope -->
    <circle cx="96" cy="48" r="8" fill="white"/>
    <path d="M88 48L80 56L80 80C80 88 72 96 64 96C56 96 48 88 48 80L48 56L40 48" stroke="white" stroke-width="3" fill="none"/>
    <circle cx="40" cy="48" r="6" fill="white"/>
    <circle cx="88" cy="48" r="6" fill="white"/>
    
    <!-- Medical cross -->
    <rect x="60" y="100" width="8" height="24" fill="white"/>
    <rect x="52" y="108" width="24" height="8" fill="white"/>
  </g>
</svg>